<mxfile host="app.diagrams.net" modified="2022-01-24T09:26:56.445Z" agent="5.0 (Macintosh; Intel Mac OS X 10_15_7) AppleWebKit/537.36 (KHTML, like Gecko) Chrome/97.0.4692.71 Safari/537.36" etag="rsmCz98xm7Yex4hzydhp" version="16.4.5" type="github">
  <diagram id="hgZ5ulrlmlE3HXC-H_6G" name="Page-1">
    <mxGraphModel dx="2066" dy="1869" grid="1" gridSize="10" guides="1" tooltips="1" connect="1" arrows="1" fold="1" page="1" pageScale="1" pageWidth="850" pageHeight="1100" math="0" shadow="0">
      <root>
        <mxCell id="0" />
        <mxCell id="1" parent="0" />
        <mxCell id="nfoQABzIxrbjPQtmmr7d-1" style="edgeStyle=orthogonalEdgeStyle;rounded=0;orthogonalLoop=1;jettySize=auto;html=1;exitX=0.25;exitY=1;exitDx=0;exitDy=0;entryX=0.25;entryY=0;entryDx=0;entryDy=0;fontSize=12;fontStyle=1;strokeWidth=4;" edge="1" parent="1" source="nfoQABzIxrbjPQtmmr7d-3" target="nfoQABzIxrbjPQtmmr7d-10">
          <mxGeometry relative="1" as="geometry" />
        </mxCell>
        <mxCell id="nfoQABzIxrbjPQtmmr7d-2" value="Call" style="edgeLabel;html=1;align=center;verticalAlign=middle;resizable=0;points=[];fontSize=12;fontStyle=1" vertex="1" connectable="0" parent="nfoQABzIxrbjPQtmmr7d-1">
          <mxGeometry x="-0.08" y="-1" relative="1" as="geometry">
            <mxPoint as="offset" />
          </mxGeometry>
        </mxCell>
        <mxCell id="nfoQABzIxrbjPQtmmr7d-3" value="AutoGrad" style="rounded=0;whiteSpace=wrap;html=1;fontSize=12;fontStyle=1;strokeWidth=4;fillColor=#0050ef;strokeColor=#001DBC;fontColor=#ffffff;" vertex="1" parent="1">
          <mxGeometry x="1060" y="90" width="120" height="60" as="geometry" />
        </mxCell>
        <mxCell id="nfoQABzIxrbjPQtmmr7d-4" style="edgeStyle=orthogonalEdgeStyle;rounded=0;orthogonalLoop=1;jettySize=auto;html=1;exitX=0.25;exitY=1;exitDx=0;exitDy=0;fontSize=12;fontStyle=1;strokeWidth=4;entryX=0.25;entryY=0;entryDx=0;entryDy=0;" edge="1" parent="1" source="nfoQABzIxrbjPQtmmr7d-10" target="nfoQABzIxrbjPQtmmr7d-17">
          <mxGeometry relative="1" as="geometry" />
        </mxCell>
        <mxCell id="nfoQABzIxrbjPQtmmr7d-5" value="Call" style="edgeLabel;html=1;align=center;verticalAlign=middle;resizable=0;points=[];fontSize=12;" vertex="1" connectable="0" parent="nfoQABzIxrbjPQtmmr7d-4">
          <mxGeometry x="-0.34" y="-4" relative="1" as="geometry">
            <mxPoint as="offset" />
          </mxGeometry>
        </mxCell>
        <mxCell id="nfoQABzIxrbjPQtmmr7d-6" style="edgeStyle=orthogonalEdgeStyle;rounded=0;orthogonalLoop=1;jettySize=auto;html=1;exitX=0.75;exitY=0;exitDx=0;exitDy=0;entryX=0.75;entryY=1;entryDx=0;entryDy=0;fontSize=12;fontStyle=1;strokeWidth=4;" edge="1" parent="1" source="nfoQABzIxrbjPQtmmr7d-10" target="nfoQABzIxrbjPQtmmr7d-3">
          <mxGeometry relative="1" as="geometry" />
        </mxCell>
        <mxCell id="nfoQABzIxrbjPQtmmr7d-7" value="Return" style="edgeLabel;html=1;align=center;verticalAlign=middle;resizable=0;points=[];fontSize=12;fontStyle=1" vertex="1" connectable="0" parent="nfoQABzIxrbjPQtmmr7d-6">
          <mxGeometry y="3" relative="1" as="geometry">
            <mxPoint as="offset" />
          </mxGeometry>
        </mxCell>
        <mxCell id="nfoQABzIxrbjPQtmmr7d-8" style="edgeStyle=orthogonalEdgeStyle;rounded=0;orthogonalLoop=1;jettySize=auto;html=1;exitX=1;exitY=0.5;exitDx=0;exitDy=0;entryX=1;entryY=0.5;entryDx=0;entryDy=0;fontSize=12;strokeWidth=3;" edge="1" parent="1" source="nfoQABzIxrbjPQtmmr7d-10" target="nfoQABzIxrbjPQtmmr7d-25">
          <mxGeometry relative="1" as="geometry">
            <Array as="points">
              <mxPoint x="1260" y="230" />
              <mxPoint x="1260" y="-50" />
            </Array>
          </mxGeometry>
        </mxCell>
        <mxCell id="nfoQABzIxrbjPQtmmr7d-9" value="Return" style="edgeLabel;html=1;align=center;verticalAlign=middle;resizable=0;points=[];fontSize=12;" vertex="1" connectable="0" parent="nfoQABzIxrbjPQtmmr7d-8">
          <mxGeometry x="-0.1591" y="-1" relative="1" as="geometry">
            <mxPoint as="offset" />
          </mxGeometry>
        </mxCell>
        <mxCell id="nfoQABzIxrbjPQtmmr7d-10" value="Python C Extension(only one entry)" style="rounded=0;whiteSpace=wrap;html=1;fontSize=12;fontStyle=1;strokeWidth=4;fillColor=#fff2cc;strokeColor=#d6b656;" vertex="1" parent="1">
          <mxGeometry x="1060" y="200" width="120" height="60" as="geometry" />
        </mxCell>
        <mxCell id="nfoQABzIxrbjPQtmmr7d-11" style="edgeStyle=orthogonalEdgeStyle;rounded=0;orthogonalLoop=1;jettySize=auto;html=1;exitX=0.25;exitY=1;exitDx=0;exitDy=0;entryX=0.5;entryY=0;entryDx=0;entryDy=0;fontSize=12;strokeWidth=3;" edge="1" parent="1" source="nfoQABzIxrbjPQtmmr7d-17" target="nfoQABzIxrbjPQtmmr7d-23">
          <mxGeometry relative="1" as="geometry" />
        </mxCell>
        <mxCell id="nfoQABzIxrbjPQtmmr7d-12" style="edgeStyle=orthogonalEdgeStyle;rounded=0;orthogonalLoop=1;jettySize=auto;html=1;exitX=0.75;exitY=1;exitDx=0;exitDy=0;entryX=0.5;entryY=0;entryDx=0;entryDy=0;fontSize=12;strokeWidth=3;" edge="1" parent="1" source="nfoQABzIxrbjPQtmmr7d-17" target="nfoQABzIxrbjPQtmmr7d-27">
          <mxGeometry relative="1" as="geometry" />
        </mxCell>
        <mxCell id="nfoQABzIxrbjPQtmmr7d-13" style="edgeStyle=orthogonalEdgeStyle;rounded=0;orthogonalLoop=1;jettySize=auto;html=1;exitX=0.5;exitY=1;exitDx=0;exitDy=0;entryX=0.5;entryY=0;entryDx=0;entryDy=0;fontSize=12;strokeWidth=3;" edge="1" parent="1" source="nfoQABzIxrbjPQtmmr7d-17" target="nfoQABzIxrbjPQtmmr7d-29">
          <mxGeometry relative="1" as="geometry" />
        </mxCell>
        <mxCell id="nfoQABzIxrbjPQtmmr7d-14" style="edgeStyle=orthogonalEdgeStyle;rounded=0;orthogonalLoop=1;jettySize=auto;html=1;exitX=1;exitY=0.5;exitDx=0;exitDy=0;entryX=0.5;entryY=0;entryDx=0;entryDy=0;fontSize=12;strokeWidth=3;" edge="1" parent="1" source="nfoQABzIxrbjPQtmmr7d-17" target="nfoQABzIxrbjPQtmmr7d-35">
          <mxGeometry relative="1" as="geometry" />
        </mxCell>
        <mxCell id="nfoQABzIxrbjPQtmmr7d-15" style="edgeStyle=orthogonalEdgeStyle;rounded=0;orthogonalLoop=1;jettySize=auto;html=1;exitX=0.75;exitY=0;exitDx=0;exitDy=0;entryX=0.75;entryY=1;entryDx=0;entryDy=0;fontSize=12;strokeWidth=3;" edge="1" parent="1" source="nfoQABzIxrbjPQtmmr7d-17" target="nfoQABzIxrbjPQtmmr7d-10">
          <mxGeometry relative="1" as="geometry" />
        </mxCell>
        <mxCell id="nfoQABzIxrbjPQtmmr7d-16" value="Return" style="edgeLabel;html=1;align=center;verticalAlign=middle;resizable=0;points=[];fontSize=12;" vertex="1" connectable="0" parent="nfoQABzIxrbjPQtmmr7d-15">
          <mxGeometry x="-0.2" y="-3" relative="1" as="geometry">
            <mxPoint as="offset" />
          </mxGeometry>
        </mxCell>
        <mxCell id="nfoQABzIxrbjPQtmmr7d-17" value="&lt;div style=&quot;color: rgb(212 , 212 , 212) ; background-color: rgb(30 , 30 , 30) ; font-family: &amp;#34;menlo&amp;#34; , &amp;#34;monaco&amp;#34; , &amp;#34;courier new&amp;#34; , monospace ; font-weight: normal ; line-height: 18px&quot;&gt;&lt;span style=&quot;color: #c8c8c8&quot;&gt;TFE_Py_FastPathExecute_C&lt;/span&gt;&lt;/div&gt;" style="rounded=0;whiteSpace=wrap;html=1;fontSize=12;fontStyle=1;strokeWidth=4;fillColor=#0050ef;fontColor=#ffffff;strokeColor=#001DBC;" vertex="1" parent="1">
          <mxGeometry x="960" y="310" width="320" height="50" as="geometry" />
        </mxCell>
        <mxCell id="nfoQABzIxrbjPQtmmr7d-18" style="edgeStyle=orthogonalEdgeStyle;rounded=0;orthogonalLoop=1;jettySize=auto;html=1;exitX=0.5;exitY=1;exitDx=0;exitDy=0;entryX=0.5;entryY=0;entryDx=0;entryDy=0;fontSize=12;strokeWidth=3;" edge="1" parent="1" source="nfoQABzIxrbjPQtmmr7d-21" target="nfoQABzIxrbjPQtmmr7d-3">
          <mxGeometry relative="1" as="geometry" />
        </mxCell>
        <mxCell id="nfoQABzIxrbjPQtmmr7d-19" style="edgeStyle=orthogonalEdgeStyle;rounded=0;orthogonalLoop=1;jettySize=auto;html=1;exitX=0;exitY=0.5;exitDx=0;exitDy=0;entryX=0;entryY=0.5;entryDx=0;entryDy=0;fontSize=12;strokeWidth=3;" edge="1" parent="1" source="nfoQABzIxrbjPQtmmr7d-21" target="nfoQABzIxrbjPQtmmr7d-10">
          <mxGeometry relative="1" as="geometry" />
        </mxCell>
        <mxCell id="nfoQABzIxrbjPQtmmr7d-20" value="Call" style="edgeLabel;html=1;align=center;verticalAlign=middle;resizable=0;points=[];fontSize=12;" vertex="1" connectable="0" parent="nfoQABzIxrbjPQtmmr7d-19">
          <mxGeometry x="0.117" y="-5" relative="1" as="geometry">
            <mxPoint as="offset" />
          </mxGeometry>
        </mxCell>
        <mxCell id="nfoQABzIxrbjPQtmmr7d-21" value="RecordGradient" style="rhombus;whiteSpace=wrap;html=1;fontSize=12;fontStyle=1;strokeWidth=3;fillColor=#0050ef;fontColor=#ffffff;strokeColor=#001DBC;" vertex="1" parent="1">
          <mxGeometry x="1030" y="10" width="180" height="50" as="geometry" />
        </mxCell>
        <mxCell id="nfoQABzIxrbjPQtmmr7d-22" style="edgeStyle=orthogonalEdgeStyle;rounded=0;orthogonalLoop=1;jettySize=auto;html=1;exitX=0.5;exitY=1;exitDx=0;exitDy=0;entryX=0.25;entryY=0;entryDx=0;entryDy=0;fontSize=12;strokeWidth=3;" edge="1" parent="1" source="nfoQABzIxrbjPQtmmr7d-23" target="nfoQABzIxrbjPQtmmr7d-33">
          <mxGeometry relative="1" as="geometry" />
        </mxCell>
        <mxCell id="nfoQABzIxrbjPQtmmr7d-23" value="AddInputToOp" style="rounded=0;whiteSpace=wrap;html=1;fontSize=12;fontStyle=1;strokeWidth=4;fillColor=#0050ef;fontColor=#ffffff;strokeColor=#001DBC;" vertex="1" parent="1">
          <mxGeometry x="890" y="415" width="130" height="50" as="geometry" />
        </mxCell>
        <mxCell id="nfoQABzIxrbjPQtmmr7d-24" style="edgeStyle=orthogonalEdgeStyle;rounded=0;orthogonalLoop=1;jettySize=auto;html=1;exitX=0.5;exitY=1;exitDx=0;exitDy=0;entryX=0.5;entryY=0;entryDx=0;entryDy=0;fontSize=12;strokeWidth=3;" edge="1" parent="1" source="nfoQABzIxrbjPQtmmr7d-25" target="nfoQABzIxrbjPQtmmr7d-21">
          <mxGeometry relative="1" as="geometry" />
        </mxCell>
        <mxCell id="nfoQABzIxrbjPQtmmr7d-25" value="Python API" style="rounded=0;whiteSpace=wrap;html=1;fontSize=12;fontStyle=1;strokeWidth=4;fillColor=#d5e8d4;strokeColor=#82b366;" vertex="1" parent="1">
          <mxGeometry x="1060" y="-80" width="120" height="60" as="geometry" />
        </mxCell>
        <mxCell id="nfoQABzIxrbjPQtmmr7d-26" style="edgeStyle=orthogonalEdgeStyle;rounded=0;orthogonalLoop=1;jettySize=auto;html=1;exitX=0.5;exitY=1;exitDx=0;exitDy=0;entryX=0.75;entryY=0;entryDx=0;entryDy=0;fontSize=12;strokeWidth=3;" edge="1" parent="1" source="nfoQABzIxrbjPQtmmr7d-27" target="nfoQABzIxrbjPQtmmr7d-33">
          <mxGeometry relative="1" as="geometry" />
        </mxCell>
        <mxCell id="nfoQABzIxrbjPQtmmr7d-27" value="AddOutputToOp" style="rounded=0;whiteSpace=wrap;html=1;fontSize=12;fontStyle=1;strokeWidth=4;fillColor=#0050ef;fontColor=#ffffff;strokeColor=#001DBC;" vertex="1" parent="1">
          <mxGeometry x="1220" y="415" width="130" height="50" as="geometry" />
        </mxCell>
        <mxCell id="nfoQABzIxrbjPQtmmr7d-28" style="edgeStyle=orthogonalEdgeStyle;rounded=0;orthogonalLoop=1;jettySize=auto;html=1;exitX=0.5;exitY=1;exitDx=0;exitDy=0;fontSize=12;strokeWidth=3;" edge="1" parent="1" source="nfoQABzIxrbjPQtmmr7d-29" target="nfoQABzIxrbjPQtmmr7d-33">
          <mxGeometry relative="1" as="geometry" />
        </mxCell>
        <mxCell id="nfoQABzIxrbjPQtmmr7d-29" value="GetOp" style="rounded=0;whiteSpace=wrap;html=1;fontSize=12;fontStyle=1;strokeWidth=4;fillColor=#0050ef;fontColor=#ffffff;strokeColor=#001DBC;" vertex="1" parent="1">
          <mxGeometry x="1055" y="415" width="130" height="50" as="geometry" />
        </mxCell>
        <mxCell id="nfoQABzIxrbjPQtmmr7d-30" style="edgeStyle=orthogonalEdgeStyle;rounded=0;orthogonalLoop=1;jettySize=auto;html=1;exitX=0.225;exitY=0.98;exitDx=0;exitDy=0;entryX=0.25;entryY=0;entryDx=0;entryDy=0;fontSize=12;strokeWidth=3;exitPerimeter=0;" edge="1" parent="1" source="nfoQABzIxrbjPQtmmr7d-33" target="nfoQABzIxrbjPQtmmr7d-40">
          <mxGeometry relative="1" as="geometry" />
        </mxCell>
        <mxCell id="nfoQABzIxrbjPQtmmr7d-31" value="Call" style="edgeLabel;html=1;align=center;verticalAlign=middle;resizable=0;points=[];fontSize=12;" vertex="1" connectable="0" parent="nfoQABzIxrbjPQtmmr7d-30">
          <mxGeometry x="0.0636" relative="1" as="geometry">
            <mxPoint as="offset" />
          </mxGeometry>
        </mxCell>
        <mxCell id="nfoQABzIxrbjPQtmmr7d-32" value="Return" style="edgeStyle=orthogonalEdgeStyle;rounded=0;orthogonalLoop=1;jettySize=auto;html=1;exitX=0;exitY=0.5;exitDx=0;exitDy=0;entryX=0;entryY=0.5;entryDx=0;entryDy=0;fontSize=12;strokeWidth=3;" edge="1" parent="1" source="nfoQABzIxrbjPQtmmr7d-33" target="nfoQABzIxrbjPQtmmr7d-17">
          <mxGeometry relative="1" as="geometry">
            <Array as="points">
              <mxPoint x="860" y="535" />
              <mxPoint x="860" y="335" />
            </Array>
          </mxGeometry>
        </mxCell>
        <mxCell id="nfoQABzIxrbjPQtmmr7d-33" value="TFE_Execute" style="rounded=0;whiteSpace=wrap;html=1;fontSize=12;fontStyle=1;strokeWidth=4;fillColor=#647687;fontColor=#ffffff;strokeColor=#314354;" vertex="1" parent="1">
          <mxGeometry x="960" y="510" width="320" height="50" as="geometry" />
        </mxCell>
        <mxCell id="nfoQABzIxrbjPQtmmr7d-34" style="edgeStyle=orthogonalEdgeStyle;rounded=0;orthogonalLoop=1;jettySize=auto;html=1;exitX=0.5;exitY=1;exitDx=0;exitDy=0;entryX=1;entryY=0.5;entryDx=0;entryDy=0;fontSize=12;strokeWidth=3;" edge="1" parent="1" source="nfoQABzIxrbjPQtmmr7d-35" target="nfoQABzIxrbjPQtmmr7d-33">
          <mxGeometry relative="1" as="geometry" />
        </mxCell>
        <mxCell id="nfoQABzIxrbjPQtmmr7d-35" value="Context" style="rounded=0;whiteSpace=wrap;html=1;fontSize=12;fontStyle=1;strokeWidth=4;fillColor=#0050ef;fontColor=#ffffff;strokeColor=#001DBC;" vertex="1" parent="1">
          <mxGeometry x="1390" y="415" width="130" height="50" as="geometry" />
        </mxCell>
        <mxCell id="nfoQABzIxrbjPQtmmr7d-36" style="edgeStyle=orthogonalEdgeStyle;rounded=0;orthogonalLoop=1;jettySize=auto;html=1;exitX=0.25;exitY=1;exitDx=0;exitDy=0;entryX=0.25;entryY=0;entryDx=0;entryDy=0;fontSize=12;strokeWidth=3;" edge="1" parent="1" source="nfoQABzIxrbjPQtmmr7d-40" target="nfoQABzIxrbjPQtmmr7d-43">
          <mxGeometry relative="1" as="geometry" />
        </mxCell>
        <mxCell id="nfoQABzIxrbjPQtmmr7d-37" value="Call" style="edgeLabel;html=1;align=center;verticalAlign=middle;resizable=0;points=[];fontSize=12;" vertex="1" connectable="0" parent="nfoQABzIxrbjPQtmmr7d-36">
          <mxGeometry x="-0.25" y="2" relative="1" as="geometry">
            <mxPoint as="offset" />
          </mxGeometry>
        </mxCell>
        <mxCell id="nfoQABzIxrbjPQtmmr7d-38" style="edgeStyle=orthogonalEdgeStyle;rounded=0;orthogonalLoop=1;jettySize=auto;html=1;exitX=0.75;exitY=0;exitDx=0;exitDy=0;entryX=0.75;entryY=1;entryDx=0;entryDy=0;fontSize=12;strokeWidth=3;" edge="1" parent="1" source="nfoQABzIxrbjPQtmmr7d-40" target="nfoQABzIxrbjPQtmmr7d-33">
          <mxGeometry relative="1" as="geometry" />
        </mxCell>
        <mxCell id="nfoQABzIxrbjPQtmmr7d-39" value="Return" style="edgeLabel;html=1;align=center;verticalAlign=middle;resizable=0;points=[];fontSize=12;" vertex="1" connectable="0" parent="nfoQABzIxrbjPQtmmr7d-38">
          <mxGeometry x="-0.0323" y="3" relative="1" as="geometry">
            <mxPoint x="1" as="offset" />
          </mxGeometry>
        </mxCell>
        <mxCell id="nfoQABzIxrbjPQtmmr7d-40" value="Operators" style="rounded=0;whiteSpace=wrap;html=1;fontSize=12;fontStyle=1;strokeWidth=4;fillColor=#647687;fontColor=#ffffff;strokeColor=#314354;" vertex="1" parent="1">
          <mxGeometry x="1035" y="600" width="170" height="50" as="geometry" />
        </mxCell>
        <mxCell id="nfoQABzIxrbjPQtmmr7d-41" style="edgeStyle=orthogonalEdgeStyle;rounded=0;orthogonalLoop=1;jettySize=auto;html=1;exitX=0.75;exitY=0;exitDx=0;exitDy=0;entryX=0.75;entryY=1;entryDx=0;entryDy=0;fontSize=12;strokeWidth=3;" edge="1" parent="1" source="nfoQABzIxrbjPQtmmr7d-43" target="nfoQABzIxrbjPQtmmr7d-40">
          <mxGeometry relative="1" as="geometry" />
        </mxCell>
        <mxCell id="nfoQABzIxrbjPQtmmr7d-42" value="Return" style="edgeLabel;html=1;align=center;verticalAlign=middle;resizable=0;points=[];fontSize=12;" vertex="1" connectable="0" parent="nfoQABzIxrbjPQtmmr7d-41">
          <mxGeometry x="0.25" relative="1" as="geometry">
            <mxPoint x="1" as="offset" />
          </mxGeometry>
        </mxCell>
        <mxCell id="nfoQABzIxrbjPQtmmr7d-43" value="Kernels" style="rounded=0;whiteSpace=wrap;html=1;fontSize=12;fontStyle=1;strokeWidth=4;fillColor=#647687;fontColor=#ffffff;strokeColor=#314354;" vertex="1" parent="1">
          <mxGeometry x="1035" y="690" width="170" height="50" as="geometry" />
        </mxCell>
      </root>
    </mxGraphModel>
  </diagram>
</mxfile>
